<?xml version="1.0" standalone="no"?>
<!DOCTYPE svg PUBLIC "-//W3C//DTD SVG 20010904//EN"
 "http://www.w3.org/TR/2001/REC-SVG-20010904/DTD/svg10.dtd">
<svg version="1.0" xmlns="http://www.w3.org/2000/svg"
 width="399.000000pt" height="399.000000pt" viewBox="0 0 399.000000 399.000000"
 preserveAspectRatio="xMidYMid meet">
<metadata>
Created by potrace 1.16, written by Peter Selinger 2001-2019
</metadata>
<g transform="translate(0.000000,399.000000) scale(0.100000,-0.100000)"
fill="#000000" stroke="none">
<path d="M1315 3060 c5 -9 1 -10 -14 -5 -22 7 -22 6 -6 -25 l16 -31 -30 15
c-16 9 -41 16 -55 16 -21 0 -24 -4 -23 -27 3 -34 -15 -55 -39 -46 -11 4 -15 3
-11 -4 4 -6 0 -16 -8 -23 -10 -9 -15 -9 -15 -1 0 6 -4 11 -10 11 -5 0 -10 -9
-10 -21 0 -11 -4 -17 -10 -14 -5 3 -10 2 -10 -4 0 -6 -10 -15 -21 -22 -15 -8
-19 -8 -15 0 11 18 -9 13 -34 -9 -25 -22 -35 -26 -25 -10 4 6 -4 5 -19 -1 -14
-7 -23 -16 -20 -20 3 -5 -2 -9 -10 -9 -9 0 -16 -5 -16 -11 0 -5 -4 -7 -10 -4
-5 3 -21 -2 -35 -11 -16 -11 -22 -20 -15 -24 6 -4 -6 -18 -31 -35 -48 -34
-109 -102 -109 -123 0 -11 3 -12 14 -3 12 10 13 8 9 -8 -3 -12 -10 -21 -17
-21 -25 0 -75 -138 -107 -295 -7 -33 -16 -64 -20 -69 -4 -5 -23 1 -42 13 -42
26 -103 28 -130 4 -18 -17 -19 -17 -33 2 -12 15 -14 16 -14 3 0 -9 6 -19 13
-21 9 -4 9 -8 1 -14 -7 -4 -17 -35 -24 -68 -6 -33 -16 -76 -22 -96 -11 -37 -8
-80 10 -184 6 -33 13 -78 16 -100 2 -22 9 -41 15 -43 5 -2 7 -10 4 -18 -3 -8
1 -14 10 -14 8 0 20 -13 26 -29 7 -15 28 -43 47 -62 19 -18 34 -40 34 -48 0
-11 3 -12 8 -5 4 6 16 14 27 18 21 6 55 54 55 76 0 7 -8 9 -19 5 -35 -11 -34
16 3 50 l36 33 11 -41 c11 -40 28 -188 29 -239 0 -34 -13 -36 -27 -5 -8 17 -9
8 -5 -38 10 -99 6 -329 -9 -515 -7 -96 -14 -272 -15 -390 -1 -183 -4 -223 -20
-269 -15 -42 -25 -57 -46 -64 -15 -4 -63 -30 -107 -56 -50 -31 -98 -51 -128
-56 -44 -6 -103 -29 -103 -40 0 -3 150 -5 334 -5 l334 0 11 28 c13 31 17 104
7 120 -3 6 2 15 11 21 10 5 17 13 15 18 -1 4 9 9 23 11 14 2 25 8 25 13 0 5 9
9 20 9 18 0 20 -7 21 -82 1 -46 1 -95 0 -110 -1 -19 4 -28 15 -28 8 0 13 4 10
9 -3 4 -6 162 -7 350 -1 256 -4 341 -13 341 -9 0 -11 -25 -8 -91 4 -81 2 -92
-16 -109 -19 -18 -21 -18 -25 -2 -4 15 -5 15 -6 0 -1 -12 -7 -15 -23 -10 -19
4 -21 3 -12 -9 17 -22 2 -63 -24 -67 -22 -3 -32 -22 -11 -22 8 0 7 -5 -2 -16
-10 -13 -10 -17 1 -24 12 -7 11 -10 -3 -16 -9 -3 -24 -3 -33 0 -13 5 -14 9 -5
20 9 10 9 16 1 21 -8 5 -8 11 0 19 10 13 8 195 -3 213 -3 4 -1 18 4 31 11 29
32 18 24 -11 -6 -19 -3 -18 19 7 21 24 27 26 32 12 9 -23 26 -8 19 16 -4 12 0
27 11 39 17 19 16 20 -4 40 -12 11 -27 17 -34 13 -7 -5 -9 -2 -5 9 4 10 -3 25
-19 39 -14 13 -39 43 -56 67 -17 24 -51 68 -75 98 -24 30 -43 58 -41 63 5 14
51 -12 63 -35 23 -45 91 -135 110 -144 11 -6 28 -16 37 -23 15 -10 20 -9 33 7
15 19 15 19 9 -6 -4 -19 -1 -26 10 -26 14 0 16 23 16 169 0 125 3 167 12 166
16 -4 23 33 9 42 -6 3 -14 36 -18 73 -5 53 -2 71 12 93 14 22 15 30 4 50 -10
20 -10 45 0 131 15 129 32 178 61 170 12 -3 17 -1 14 5 -9 14 35 58 74 75 23
10 38 11 52 3 24 -13 52 -14 31 -1 -7 5 -9 11 -4 14 5 3 109 4 231 2 128 -2
224 0 228 6 3 5 44 9 92 8 59 -1 79 -4 62 -9 -15 -5 43 -8 142 -9 144 -1 167
-3 162 -16 -8 -20 29 -20 46 0 10 13 17 12 48 -5 65 -34 67 -36 52 -54 -11
-14 -10 -16 4 -10 12 5 15 2 10 -10 -7 -18 7 -21 23 -5 17 17 43 -30 44 -82 1
-24 6 -50 12 -57 6 -7 8 -62 5 -135 -3 -68 -1 -132 3 -142 5 -14 8 -7 8 24 1
69 23 170 38 175 9 4 13 -4 13 -27 0 -21 -3 -28 -9 -19 -5 9 -8 3 -7 -17 1
-32 16 -44 16 -13 0 9 14 25 30 34 17 9 30 23 30 31 0 8 7 20 15 27 9 7 15 29
15 51 0 22 5 39 11 39 7 0 9 15 5 43 -3 23 -3 36 0 30 3 -7 10 -13 14 -13 10
0 11 9 13 93 2 46 5 57 19 57 9 0 18 -8 20 -17 2 -10 4 8 3 39 0 72 -17 76
-48 11 -22 -47 -24 -48 -65 -45 -25 1 -42 -2 -42 -8 0 -6 -22 -20 -49 -31 -48
-21 -49 -21 -39 -52 18 -59 19 -72 3 -38 -8 19 -16 45 -17 58 -3 29 -17 42
-83 79 -44 24 -61 28 -139 28 l-89 1 -28 105 c-16 58 -29 125 -29 150 -1 69
-10 78 -62 59 -24 -8 -42 -21 -40 -28 1 -7 -2 -10 -7 -6 -10 6 -160 -125 -187
-163 -10 -14 -34 -25 -76 -33 -45 -9 -62 -17 -66 -31 -3 -12 -8 -15 -16 -9
-18 15 -99 11 -125 -6 -18 -11 -20 -17 -11 -23 7 -5 -35 -9 -95 -9 -67 -1
-113 3 -121 10 -8 6 -20 9 -29 6 -8 -4 -17 -2 -20 3 -4 6 -1 10 4 10 6 0 11 6
11 13 1 15 76 71 123 91 20 8 47 13 62 12 41 -5 28 27 -15 35 -19 3 -49 13
-66 22 -36 18 -84 72 -84 92 0 17 -42 97 -57 110 -17 13 0 76 33 124 13 19 21
38 18 43 -3 4 0 8 5 8 6 0 11 5 11 11 0 5 -10 9 -22 7 -31 -4 -36 28 -8 57 49
52 177 70 210 30 21 -25 33 -17 16 10 -34 52 -28 55 120 53 88 0 139 3 147 11
6 6 41 11 78 11 37 0 79 4 94 10 21 8 31 6 55 -11 18 -14 37 -20 50 -16 13 3
23 0 26 -9 15 -48 13 -47 30 -33 14 12 20 9 39 -15 14 -18 25 -24 29 -17 9 13
26 15 26 2 0 -5 5 -22 10 -37 10 -25 12 -26 24 -9 12 17 14 17 34 -3 12 -12
22 -27 22 -33 0 -7 11 -8 29 -4 22 5 35 1 48 -12 10 -10 45 -26 78 -37 33 -10
67 -22 75 -27 8 -5 48 -26 88 -46 56 -28 85 -51 125 -99 56 -67 72 -79 57 -39
-5 14 -5 27 0 30 11 7 11 245 0 285 -5 16 -19 40 -32 52 -14 13 -38 43 -55 68
-42 61 -70 85 -118 100 -77 24 -150 64 -182 98 -32 35 -33 35 -53 17 -13 -12
-24 -15 -28 -9 -4 6 -38 21 -77 33 -38 13 -79 32 -91 42 -11 11 -26 19 -32 19
-7 0 -12 11 -12 25 0 18 -7 26 -27 32 -16 4 -36 6 -45 4 -10 -1 -18 4 -18 12
0 19 -53 54 -58 39 -5 -15 -37 -15 -62 -2 -30 16 -247 49 -347 53 -76 3 -90 1
-86 -11 5 -11 -1 -11 -27 3 -18 9 -29 12 -25 5z m-823 -862 c25 -20 58 -80 58
-107 0 -13 -2 -22 -4 -20 -2 2 -4 7 -3 10 4 14 -27 39 -49 39 -17 0 -28 -8
-36 -27 -37 -90 -71 -156 -75 -145 -7 18 15 170 29 207 20 50 50 66 80 43z
m93 -211 c4 -15 -3 -39 -19 -67 -32 -56 -32 -73 -1 -114 42 -55 28 -98 -21
-61 -10 8 -34 15 -52 15 -59 0 -89 80 -58 154 16 38 69 82 106 89 14 2 28 5
32 6 4 0 10 -9 13 -22z"/>
<path d="M2954 1843 c3 -21 5 -53 6 -71 0 -20 4 -31 10 -27 6 4 10 -13 10 -45
0 -28 7 -64 15 -81 9 -16 13 -34 10 -39 -3 -5 1 -31 8 -58 8 -27 13 -60 10
-74 -3 -14 2 -38 9 -54 8 -16 20 -63 27 -104 37 -224 51 -291 64 -305 12 -12
3 63 -23 200 -19 102 -68 353 -75 390 -6 31 -44 236 -50 273 -8 46 -28 41 -21
-5z"/>
<path d="M3081 1633 c-1 -12 -6 -23 -12 -25 -8 -3 -9 -18 -4 -48 7 -39 9 -42
15 -20 6 24 7 24 15 -10 5 -23 4 -35 -4 -38 -6 -2 -11 -11 -11 -20 0 -15 2
-15 11 -2 8 11 12 12 16 3 7 -18 4 -28 -7 -28 -5 0 -10 -3 -10 -7 0 -5 0 -19
0 -33 0 -14 5 -25 11 -25 6 0 9 7 5 15 -3 8 -1 15 4 15 6 0 10 -11 10 -24 0
-14 5 -37 10 -51 7 -19 7 -39 -1 -66 -7 -22 -9 -42 -4 -47 4 -4 10 -1 12 6 8
21 18 13 20 -15 1 -16 6 -57 12 -93 6 -45 6 -67 -1 -71 -6 -4 -8 -14 -5 -24 4
-9 11 -13 17 -10 6 4 10 -5 10 -19 0 -14 4 -27 9 -30 5 -3 7 -15 4 -25 -4 -17
12 -39 22 -29 2 2 -5 53 -16 113 -11 61 -27 146 -35 190 -8 44 -17 87 -21 95
-3 8 -10 42 -14 75 -14 107 -21 140 -31 152 -6 7 -8 19 -5 28 4 8 0 31 -8 52
-10 27 -14 32 -14 16z"/>
<path d="M2473 1333 c-4 -10 -10 -20 -13 -23 -4 -3 -11 -18 -17 -35 -5 -16
-16 -30 -24 -30 -10 0 -14 -16 -14 -62 -1 -34 -4 -65 -7 -69 -4 -3 -3 -14 2
-23 21 -41 25 -56 34 -146 4 -38 11 -72 16 -75 5 -3 10 -28 11 -55 1 -28 5
-54 8 -60 6 -10 7 -16 9 -48 1 -10 6 -16 11 -12 5 3 11 -7 13 -22 2 -16 9 -29
16 -29 6 -1 19 -2 27 -3 8 0 15 -6 15 -12 0 -11 -14 -8 -96 22 -49 19 -51 21
-50 57 1 20 5 43 9 50 10 14 -1 35 -14 27 -5 -4 -9 -28 -9 -56 0 -60 -2 -60
-113 -15 -114 46 -177 59 -219 44 -54 -19 -61 -49 -10 -48 47 1 95 -12 81 -21
-10 -6 -9 -10 6 -15 11 -5 28 -17 37 -29 17 -20 17 -20 33 0 16 20 16 20 5 -2
-9 -20 -6 -25 32 -46 24 -14 53 -28 66 -32 12 -3 22 -10 22 -15 0 -16 81 -50
120 -50 30 0 48 -8 75 -31 19 -17 55 -37 80 -44 40 -12 46 -12 54 3 7 12 11 4
16 -33 7 -56 38 -143 70 -195 25 -43 60 -114 76 -158 l11 -32 387 1 386 0 -75
26 c-67 22 -86 24 -175 20 -55 -3 -120 -2 -145 3 -25 5 -110 16 -189 25 -82 8
-153 21 -165 29 -15 9 -40 64 -78 167 -31 85 -59 165 -62 179 -3 14 -19 40
-35 58 -16 17 -26 32 -20 32 5 0 9 16 9 35 0 25 4 35 16 35 8 0 12 5 9 11 -4
5 -14 9 -23 7 -18 -4 -46 47 -36 63 3 6 1 15 -4 22 -5 7 -12 34 -16 61 -3 27
-11 55 -17 63 -11 13 -15 30 -18 81 -1 16 -6 22 -18 20 -14 -2 -19 5 -21 32
-2 23 0 30 6 22 8 -11 10 -11 15 1 3 8 0 20 -6 26 -8 8 -8 11 1 11 8 0 10 9 6
28 -9 35 -12 38 -25 25 -21 -21 -39 -2 -39 38 0 30 3 37 15 33 11 -5 15 0 15
17 -1 30 -23 116 -33 125 -4 4 -7 16 -7 26 0 23 -19 24 -27 1z"/>
<path d="M1640 540 c0 -3 5 -11 11 -17 5 -5 11 -47 12 -91 l2 -81 69 -16 c53
-12 72 -12 83 -3 21 17 43 76 43 115 0 38 -24 92 -43 95 -34 4 -177 3 -177 -2z"/>
<path d="M2396 169 c-4 -68 -4 -132 -1 -142 5 -11 18 -17 41 -17 27 0 36 6 49
30 15 28 14 32 -20 96 -19 36 -35 72 -35 79 0 7 -6 27 -14 45 -12 30 -14 25
-20 -91z"/>
</g>
</svg>
